<svg width="50" height="39" viewBox="0 0 50 39" fill="none" xmlns="http://www.w3.org/2000/svg">
<path d="M5.66683 38.5C4.33766 38.5 3.19982 38.0349 2.25329 37.1047C1.30676 36.1745 0.833496 35.0562 0.833496 33.75V5.25C0.833496 3.94375 1.30676 2.82552 2.25329 1.89531C3.19982 0.965104 4.33766 0.5 5.66683 0.5H44.3335C45.6627 0.5 46.8005 0.965104 47.747 1.89531C48.6936 2.82552 49.1668 3.94375 49.1668 5.25V33.75C49.1668 35.0562 48.6936 36.1745 47.747 37.1047C46.8005 38.0349 45.6627 38.5 44.3335 38.5H5.66683ZM25.0002 21.875L5.66683 10V33.75H44.3335V10L25.0002 21.875ZM25.0002 17.125L44.3335 5.25H5.66683L25.0002 17.125ZM5.66683 10V5.25V33.75V10Z" fill="white"/>
</svg>
